<?xml version="1.0" encoding="utf-8"?>
<!-- Generator: Adobe Illustrator 15.0.0, SVG Export Plug-In  -->
<!DOCTYPE svg PUBLIC "-//W3C//DTD SVG 1.1//EN" "http://www.w3.org/Graphics/SVG/1.1/DTD/svg11.dtd" [
	<!ENTITY ns_flows "http://ns.adobe.com/Flows/1.0/">
]>
<svg version="1.1"
	 xmlns="http://www.w3.org/2000/svg" xmlns:xlink="http://www.w3.org/1999/xlink" xmlns:a="http://ns.adobe.com/AdobeSVGViewerExtensions/3.0/"
	 x="0px" y="0px" width="500px" height="500px" viewBox="-93.223 -3.507 500 500" enable-background="new -93.223 -3.507 500 500"
	 xml:space="preserve">
<defs>
</defs>
<path fill="none" stroke="#FFFFFF" stroke-width="21" stroke-miterlimit="10" d="M26.391,358.883
	c22.387-75.391,112.387-245.391,176.483-306.303c10.183-9.677,64.564-52.967,79.516-39.51c11.925,10.747,5.5,41.512,3.892,54.651
	c-2.813,22.992-8.076,45.265-15.25,67.278c-14.406,44.204-35.164,85.897-54.922,127.866
	c-26.481,56.246-69.362,105.015-109.881,151.57c-18.492,21.247-43.25,41.319-66.842,56.376c-6.901,4.404-19.109,14.68-27.419,11.686
	c-6.689-11.006,11.149-51.417,20.313-69.07c17.041-32.828,35.718-62.069,62.677-86.846c17.186-15.795,33.681-35.562,53.019-48.736
	c4.53-3.085,4.696-4.691,13.308-0.514c12.186,32.896-54.709,110.993-52.75,173.136c0.657,20.86,17.5,25.228,36.506,16.886
	c53.18-23.339,20.012-8.642,69.209-34.266"/>
</svg>
